<mxfile host="app.diagrams.net" modified="2024-03-27T06:58:49.452Z" agent="Mozilla/5.0 (Windows NT 10.0; Win64; x64) AppleWebKit/537.36 (KHTML, like Gecko) Chrome/122.0.0.0 Safari/537.36 Edg/122.0.0.0" etag="l6pOL7H2uJDzBAe74e3v" version="24.1.0" type="device">
  <diagram id="qVy2EvSfz9hOt4ciKIdf" name="timer">
    <mxGraphModel dx="1711" dy="1039" grid="0" gridSize="10" guides="1" tooltips="1" connect="1" arrows="1" fold="1" page="1" pageScale="1" pageWidth="3300" pageHeight="2339" background="#FFFFFF" math="0" shadow="0">
      <root>
        <mxCell id="0" />
        <mxCell id="1" parent="0" />
        <mxCell id="o9Bvsv7KZXOHzs1uqfiy-5" value="&lt;font style=&quot;font-size: 18px;&quot;&gt;client_data&lt;/font&gt;" style="swimlane;fontStyle=0;childLayout=stackLayout;horizontal=1;startSize=26;fillColor=default;horizontalStack=0;resizeParent=1;resizeParentMax=0;resizeLast=0;collapsible=1;marginBottom=0;whiteSpace=wrap;html=1;" parent="1" vertex="1">
          <mxGeometry x="487.5" y="370" width="272" height="113" as="geometry" />
        </mxCell>
        <mxCell id="o9Bvsv7KZXOHzs1uqfiy-6" value="&lt;font style=&quot;font-size: 18px;&quot;&gt;+ address: sockaddr_in&lt;/font&gt;" style="text;strokeColor=none;fillColor=none;align=left;verticalAlign=top;spacingLeft=4;spacingRight=4;overflow=hidden;rotatable=0;points=[[0,0.5],[1,0.5]];portConstraint=eastwest;whiteSpace=wrap;html=1;" parent="o9Bvsv7KZXOHzs1uqfiy-5" vertex="1">
          <mxGeometry y="26" width="272" height="26" as="geometry" />
        </mxCell>
        <mxCell id="o9Bvsv7KZXOHzs1uqfiy-7" value="&lt;font style=&quot;font-size: 18px;&quot;&gt;+ sockfd: int&lt;/font&gt;" style="text;strokeColor=none;fillColor=none;align=left;verticalAlign=top;spacingLeft=4;spacingRight=4;overflow=hidden;rotatable=0;points=[[0,0.5],[1,0.5]];portConstraint=eastwest;whiteSpace=wrap;html=1;" parent="o9Bvsv7KZXOHzs1uqfiy-5" vertex="1">
          <mxGeometry y="52" width="272" height="26" as="geometry" />
        </mxCell>
        <mxCell id="o9Bvsv7KZXOHzs1uqfiy-8" value="&lt;font style=&quot;font-size: 18px;&quot;&gt;+ timer: util_timer *&lt;/font&gt;" style="text;strokeColor=none;fillColor=none;align=left;verticalAlign=top;spacingLeft=4;spacingRight=4;overflow=hidden;rotatable=0;points=[[0,0.5],[1,0.5]];portConstraint=eastwest;whiteSpace=wrap;html=1;" parent="o9Bvsv7KZXOHzs1uqfiy-5" vertex="1">
          <mxGeometry y="78" width="272" height="35" as="geometry" />
        </mxCell>
        <mxCell id="o9Bvsv7KZXOHzs1uqfiy-9" value="&lt;font style=&quot;font-size: 18px;&quot;&gt;&lt;i&gt;util_timer&lt;/i&gt;&lt;/font&gt;" style="swimlane;fontStyle=1;align=center;verticalAlign=top;childLayout=stackLayout;horizontal=1;startSize=31;horizontalStack=0;resizeParent=1;resizeParentMax=0;resizeLast=0;collapsible=1;marginBottom=0;whiteSpace=wrap;html=1;" parent="1" vertex="1">
          <mxGeometry x="917.5" y="370" width="341" height="215" as="geometry" />
        </mxCell>
        <mxCell id="o9Bvsv7KZXOHzs1uqfiy-10" value="&lt;font style=&quot;font-size: 18px;&quot;&gt;+ expire: time_t&lt;/font&gt;&lt;div&gt;&lt;font style=&quot;font-size: 18px;&quot;&gt;+ user_data: client_data *&lt;/font&gt;&lt;/div&gt;&lt;div&gt;&lt;span style=&quot;font-size: 18px;&quot;&gt;+ prev: util_timer *&lt;/span&gt;&lt;/div&gt;&lt;div&gt;&lt;span style=&quot;font-size: 18px;&quot;&gt;+ next: util_tmer *&lt;/span&gt;&lt;/div&gt;" style="text;strokeColor=none;fillColor=default;align=left;verticalAlign=top;spacingLeft=4;spacingRight=4;overflow=hidden;rotatable=0;points=[[0,0.5],[1,0.5]];portConstraint=eastwest;whiteSpace=wrap;html=1;" parent="o9Bvsv7KZXOHzs1uqfiy-9" vertex="1">
          <mxGeometry y="31" width="341" height="101" as="geometry" />
        </mxCell>
        <mxCell id="o9Bvsv7KZXOHzs1uqfiy-11" value="" style="line;strokeWidth=1;fillColor=none;align=left;verticalAlign=middle;spacingTop=-1;spacingLeft=3;spacingRight=3;rotatable=0;labelPosition=right;points=[];portConstraint=eastwest;strokeColor=inherit;" parent="o9Bvsv7KZXOHzs1uqfiy-9" vertex="1">
          <mxGeometry y="132" width="341" height="15" as="geometry" />
        </mxCell>
        <mxCell id="o9Bvsv7KZXOHzs1uqfiy-12" value="&lt;span style=&quot;font-size: 18px;&quot;&gt;+ util_timer()&lt;/span&gt;&lt;div&gt;&lt;span style=&quot;font-size: 18px;&quot;&gt;+&amp;nbsp;&lt;/span&gt;&lt;span style=&quot;background-color: initial; font-size: 18px;&quot;&gt;(* cb_func)(client_data *): void&lt;/span&gt;&lt;/div&gt;" style="text;strokeColor=none;fillColor=default;align=left;verticalAlign=top;spacingLeft=4;spacingRight=4;overflow=hidden;rotatable=0;points=[[0,0.5],[1,0.5]];portConstraint=eastwest;whiteSpace=wrap;html=1;" parent="o9Bvsv7KZXOHzs1uqfiy-9" vertex="1">
          <mxGeometry y="147" width="341" height="68" as="geometry" />
        </mxCell>
        <mxCell id="o9Bvsv7KZXOHzs1uqfiy-15" value="1" style="endArrow=open;html=1;endSize=12;startArrow=diamondThin;startSize=14;startFill=1;edgeStyle=orthogonalEdgeStyle;align=left;verticalAlign=bottom;rounded=0;strokeWidth=3;" parent="1" edge="1">
          <mxGeometry x="-1" y="3" relative="1" as="geometry">
            <mxPoint x="759.5" y="464" as="sourcePoint" />
            <mxPoint x="907.5" y="464" as="targetPoint" />
          </mxGeometry>
        </mxCell>
        <mxCell id="o9Bvsv7KZXOHzs1uqfiy-16" value="&lt;font style=&quot;font-size: 18px;&quot;&gt;组合关系&lt;/font&gt;" style="text;html=1;align=center;verticalAlign=middle;resizable=0;points=[];autosize=1;strokeColor=none;fillColor=none;" parent="1" vertex="1">
          <mxGeometry x="787.5" y="418" width="90" height="34" as="geometry" />
        </mxCell>
        <mxCell id="o9Bvsv7KZXOHzs1uqfiy-17" value="1" style="endArrow=open;html=1;endSize=12;startArrow=diamondThin;startSize=14;startFill=1;edgeStyle=orthogonalEdgeStyle;align=left;verticalAlign=bottom;rounded=0;strokeWidth=3;" parent="1" edge="1">
          <mxGeometry x="-1" y="3" relative="1" as="geometry">
            <mxPoint x="904.5" y="403" as="sourcePoint" />
            <mxPoint x="756.5" y="403" as="targetPoint" />
          </mxGeometry>
        </mxCell>
        <mxCell id="o9Bvsv7KZXOHzs1uqfiy-22" value="&lt;span style=&quot;font-size: 18px;&quot;&gt;&lt;i&gt;sort_timer_lst&lt;/i&gt;&lt;/span&gt;" style="swimlane;fontStyle=1;align=center;verticalAlign=top;childLayout=stackLayout;horizontal=1;startSize=31;horizontalStack=0;resizeParent=1;resizeParentMax=0;resizeLast=0;collapsible=1;marginBottom=0;whiteSpace=wrap;html=1;" parent="1" vertex="1">
          <mxGeometry x="920.5" y="707" width="341" height="305" as="geometry" />
        </mxCell>
        <mxCell id="o9Bvsv7KZXOHzs1uqfiy-29" value="1" style="endArrow=open;html=1;endSize=12;startArrow=diamondThin;startSize=14;startFill=1;edgeStyle=orthogonalEdgeStyle;align=left;verticalAlign=bottom;rounded=0;strokeWidth=3;" parent="o9Bvsv7KZXOHzs1uqfiy-22" edge="1">
          <mxGeometry x="-1" y="3" relative="1" as="geometry">
            <mxPoint x="173" y="4.547473508864641e-13" as="sourcePoint" />
            <mxPoint x="164" y="-117" as="targetPoint" />
          </mxGeometry>
        </mxCell>
        <mxCell id="o9Bvsv7KZXOHzs1uqfiy-23" value="&lt;div&gt;&lt;span style=&quot;font-size: 18px; background-color: initial;&quot;&gt;+ head: util_timer *&lt;/span&gt;&lt;br&gt;&lt;/div&gt;&lt;div&gt;&lt;span style=&quot;font-size: 18px;&quot;&gt;+ tail: util_tmer *&lt;/span&gt;&lt;/div&gt;" style="text;strokeColor=none;fillColor=default;align=left;verticalAlign=top;spacingLeft=4;spacingRight=4;overflow=hidden;rotatable=0;points=[[0,0.5],[1,0.5]];portConstraint=eastwest;whiteSpace=wrap;html=1;" parent="o9Bvsv7KZXOHzs1uqfiy-22" vertex="1">
          <mxGeometry y="31" width="341" height="62" as="geometry" />
        </mxCell>
        <mxCell id="o9Bvsv7KZXOHzs1uqfiy-24" value="" style="line;strokeWidth=1;fillColor=none;align=left;verticalAlign=middle;spacingTop=-1;spacingLeft=3;spacingRight=3;rotatable=0;labelPosition=right;points=[];portConstraint=eastwest;strokeColor=inherit;" parent="o9Bvsv7KZXOHzs1uqfiy-22" vertex="1">
          <mxGeometry y="93" width="341" height="15" as="geometry" />
        </mxCell>
        <mxCell id="o9Bvsv7KZXOHzs1uqfiy-25" value="&lt;div&gt;&lt;span style=&quot;font-size: 18px;&quot;&gt;- add_timer&lt;/span&gt;&lt;span style=&quot;background-color: initial; font-size: 18px;&quot;&gt;(util_timer *timer, util_timer *lst_head)&lt;/span&gt;&lt;span style=&quot;font-size: 18px; background-color: initial;&quot;&gt;: void&lt;/span&gt;&lt;/div&gt;&lt;span style=&quot;font-size: 18px;&quot;&gt;+&amp;nbsp;sort_timer_lst()&lt;/span&gt;&lt;div&gt;&lt;span style=&quot;font-size: 18px;&quot;&gt;+ ~sort_timer_lst()&lt;/span&gt;&lt;br&gt;&lt;/div&gt;&lt;div&gt;&lt;span style=&quot;font-size: 18px;&quot;&gt;+&amp;nbsp;&lt;/span&gt;&lt;span style=&quot;background-color: initial; font-size: 18px;&quot;&gt;add_timer(util_timer *timer): void&lt;/span&gt;&lt;/div&gt;&lt;div&gt;&lt;span style=&quot;background-color: initial; font-size: 18px;&quot;&gt;+&amp;nbsp;&lt;/span&gt;&lt;span style=&quot;background-color: initial; font-size: 18px;&quot;&gt;adjust_timer(util_timer *timer): void&lt;/span&gt;&lt;/div&gt;&lt;div&gt;&lt;span style=&quot;background-color: initial; font-size: 18px;&quot;&gt;+&amp;nbsp;&lt;/span&gt;&lt;span style=&quot;background-color: initial; font-size: 18px;&quot;&gt;del_timer(util_timer *timer): void&lt;/span&gt;&lt;/div&gt;&lt;div&gt;&lt;span style=&quot;background-color: initial; font-size: 18px;&quot;&gt;+ tick(): void&lt;/span&gt;&lt;/div&gt;" style="text;strokeColor=none;fillColor=default;align=left;verticalAlign=top;spacingLeft=4;spacingRight=4;overflow=hidden;rotatable=0;points=[[0,0.5],[1,0.5]];portConstraint=eastwest;whiteSpace=wrap;html=1;" parent="o9Bvsv7KZXOHzs1uqfiy-22" vertex="1">
          <mxGeometry y="108" width="341" height="197" as="geometry" />
        </mxCell>
        <mxCell id="o9Bvsv7KZXOHzs1uqfiy-30" value="&lt;font style=&quot;font-size: 18px;&quot;&gt;组合关系&lt;/font&gt;" style="text;html=1;align=center;verticalAlign=middle;resizable=0;points=[];autosize=1;strokeColor=none;fillColor=none;" parent="1" vertex="1">
          <mxGeometry x="1102.5" y="638" width="90" height="34" as="geometry" />
        </mxCell>
        <mxCell id="o9Bvsv7KZXOHzs1uqfiy-31" value="&lt;span style=&quot;font-size: 18px;&quot;&gt;&lt;i&gt;Utils&lt;/i&gt;&lt;/span&gt;" style="swimlane;fontStyle=1;align=center;verticalAlign=top;childLayout=stackLayout;horizontal=1;startSize=31;horizontalStack=0;resizeParent=1;resizeParentMax=0;resizeLast=0;collapsible=1;marginBottom=0;whiteSpace=wrap;html=1;" parent="1" vertex="1">
          <mxGeometry x="124" y="699" width="656" height="391" as="geometry" />
        </mxCell>
        <mxCell id="o9Bvsv7KZXOHzs1uqfiy-33" value="&lt;div&gt;&lt;span style=&quot;font-size: 18px;&quot;&gt;+ u_pipefd:&amp;nbsp;&lt;/span&gt;&lt;span style=&quot;font-size: 18px; background-color: initial;&quot;&gt;static int *&lt;/span&gt;&lt;/div&gt;&lt;div&gt;&lt;span style=&quot;font-size: 18px; background-color: initial;&quot;&gt;+ m_timer_lst:&amp;nbsp;&lt;/span&gt;&lt;span style=&quot;font-size: 18px; background-color: initial;&quot;&gt;sort_timer_lst&lt;/span&gt;&lt;/div&gt;&lt;div&gt;&lt;span style=&quot;font-size: 18px;&quot;&gt;+ u_epollfd:&amp;nbsp;&lt;/span&gt;&lt;span style=&quot;font-size: 18px; background-color: initial;&quot;&gt;static int&lt;/span&gt;&lt;/div&gt;&lt;div&gt;&lt;span style=&quot;font-size: 18px;&quot;&gt;+ m_TIMESLOT:&amp;nbsp;&lt;/span&gt;&lt;span style=&quot;font-size: 18px; background-color: initial;&quot;&gt;int&lt;/span&gt;&lt;/div&gt;" style="text;strokeColor=none;fillColor=default;align=left;verticalAlign=top;spacingLeft=4;spacingRight=4;overflow=hidden;rotatable=0;points=[[0,0.5],[1,0.5]];portConstraint=eastwest;whiteSpace=wrap;html=1;" parent="o9Bvsv7KZXOHzs1uqfiy-31" vertex="1">
          <mxGeometry y="31" width="656" height="108" as="geometry" />
        </mxCell>
        <mxCell id="o9Bvsv7KZXOHzs1uqfiy-34" value="" style="line;strokeWidth=1;fillColor=none;align=left;verticalAlign=middle;spacingTop=-1;spacingLeft=3;spacingRight=3;rotatable=0;labelPosition=right;points=[];portConstraint=eastwest;strokeColor=inherit;" parent="o9Bvsv7KZXOHzs1uqfiy-31" vertex="1">
          <mxGeometry y="139" width="656" height="15" as="geometry" />
        </mxCell>
        <mxCell id="o9Bvsv7KZXOHzs1uqfiy-35" value="&lt;div&gt;&lt;span style=&quot;font-size: 18px;&quot;&gt;+ Utils()&lt;/span&gt;&lt;/div&gt;&lt;div&gt;&lt;span style=&quot;font-size: 18px;&quot;&gt;+&lt;/span&gt;&lt;span style=&quot;background-color: initial; font-size: 18px;&quot;&gt;&amp;nbsp;~Utils()&lt;/span&gt;&lt;/div&gt;&lt;div&gt;&lt;span style=&quot;background-color: initial;&quot;&gt;&lt;span style=&quot;font-size: 18px;&quot;&gt;+ init(int timeslot):&amp;nbsp;&lt;/span&gt;&lt;/span&gt;&lt;span style=&quot;font-size: 18px; background-color: initial;&quot;&gt;void&lt;/span&gt;&lt;span style=&quot;background-color: initial;&quot;&gt;&lt;br&gt;&lt;/span&gt;&lt;/div&gt;&lt;div&gt;&lt;span style=&quot;font-size: 18px; background-color: initial;&quot;&gt;+&amp;nbsp;&lt;/span&gt;&lt;span style=&quot;background-color: initial; font-size: 18px;&quot;&gt;setnonblocking(int fd):&amp;nbsp;&lt;/span&gt;&lt;span style=&quot;font-size: 18px; background-color: initial;&quot;&gt;int&lt;/span&gt;&lt;span style=&quot;font-size: 18px; background-color: initial;&quot;&gt;&amp;nbsp;// 对文件描述符设置非阻塞&lt;/span&gt;&lt;/div&gt;&lt;div&gt;&lt;span style=&quot;background-color: initial;&quot;&gt;&lt;span style=&quot;font-size: 18px;&quot;&gt;+ addfd(int epollfd, int fd, bool one_shot, int TRIGMode):&amp;nbsp;&lt;/span&gt;&lt;/span&gt;&lt;span style=&quot;font-size: 18px; background-color: initial;&quot;&gt;void&amp;nbsp;&lt;/span&gt;&lt;span style=&quot;background-color: initial; font-size: 18px;&quot;&gt;//将内核事件表注册读事件，ET模式，选择开启EPOLLONESHOT&lt;/span&gt;&lt;span style=&quot;background-color: initial;&quot;&gt;&lt;br&gt;&lt;/span&gt;&lt;/div&gt;&lt;div&gt;&lt;span style=&quot;background-color: initial; font-size: 18px;&quot;&gt;+&lt;/span&gt;&lt;span style=&quot;background-color: initial; font-size: 18px;&quot;&gt;&amp;nbsp;sig_handler(int sig):&amp;nbsp;&lt;/span&gt;&lt;span style=&quot;font-size: 18px; background-color: initial;&quot;&gt;static void // 信号处理函数&lt;/span&gt;&lt;/div&gt;&lt;div&gt;&lt;span style=&quot;font-size: 18px; background-color: initial;&quot;&gt;+&amp;nbsp;&lt;/span&gt;&lt;span style=&quot;background-color: initial; font-size: 18px;&quot;&gt;addsig(int sig, void(handler)(int), bool restart = true):&amp;nbsp;&lt;/span&gt;&lt;span style=&quot;font-size: 18px; background-color: initial;&quot;&gt;void&lt;/span&gt;&lt;span style=&quot;font-size: 18px; background-color: initial;&quot;&gt;&amp;nbsp;// 设置信号函数&lt;/span&gt;&lt;/div&gt;&lt;div&gt;&lt;span style=&quot;font-size: 18px; background-color: initial;&quot;&gt;+&lt;/span&gt;&lt;span style=&quot;background-color: initial; font-size: 18px;&quot;&gt;&amp;nbsp;timer_handler():&amp;nbsp;&lt;/span&gt;&lt;span style=&quot;font-size: 18px; background-color: initial;&quot;&gt;void&amp;nbsp;&lt;/span&gt;&lt;span style=&quot;background-color: initial; font-size: 18px;&quot;&gt;&amp;nbsp;&lt;/span&gt;&lt;span style=&quot;background-color: initial; font-size: 18px;&quot;&gt;//定时处理任务，重新定时以不断触发SIGALRM信号&lt;/span&gt;&lt;/div&gt;&lt;div&gt;&lt;span style=&quot;background-color: initial; font-size: 18px;&quot;&gt;+&amp;nbsp;&lt;/span&gt;&lt;span style=&quot;background-color: initial; font-size: 18px;&quot;&gt;show_error(int connfd, const char *info):&amp;nbsp;&lt;/span&gt;&lt;span style=&quot;font-size: 18px; background-color: initial;&quot;&gt;void&lt;/span&gt;&lt;span style=&quot;font-size: 18px; background-color: initial;&quot;&gt;&amp;nbsp;&lt;/span&gt;&lt;/div&gt;" style="text;strokeColor=none;fillColor=default;align=left;verticalAlign=top;spacingLeft=4;spacingRight=4;overflow=hidden;rotatable=0;points=[[0,0.5],[1,0.5]];portConstraint=eastwest;whiteSpace=wrap;html=1;" parent="o9Bvsv7KZXOHzs1uqfiy-31" vertex="1">
          <mxGeometry y="154" width="656" height="237" as="geometry" />
        </mxCell>
        <mxCell id="o9Bvsv7KZXOHzs1uqfiy-37" value="&lt;font style=&quot;font-size: 18px;&quot;&gt;关联关系&lt;/font&gt;" style="text;html=1;align=center;verticalAlign=middle;resizable=0;points=[];autosize=1;strokeColor=none;fillColor=none;" parent="1" vertex="1">
          <mxGeometry x="812.5" y="791" width="90" height="34" as="geometry" />
        </mxCell>
        <mxCell id="o9Bvsv7KZXOHzs1uqfiy-36" value="" style="endArrow=open;endFill=1;endSize=12;html=1;rounded=0;strokeWidth=3;entryX=1;entryY=0.835;entryDx=0;entryDy=0;entryPerimeter=0;" parent="1" edge="1">
          <mxGeometry width="160" relative="1" as="geometry">
            <mxPoint x="781" y="826" as="sourcePoint" />
            <mxPoint x="919.5" y="826.1800000000001" as="targetPoint" />
          </mxGeometry>
        </mxCell>
      </root>
    </mxGraphModel>
  </diagram>
</mxfile>
